<svg width="8192" height="2380" viewBox="0 0 8192 2380" fill="none" xmlns="http://www.w3.org/2000/svg">
<g clip-path="url(#clip0_179_63)">
<path d="M2872.5 825.29H3033.95V1146.12L3331.71 825.29H3526.71L3227.91 1136.68L3540.34 1559.2H3346.38L3118.87 1246.77L3033.94 1334.83V1559.2H2872.49V825.3L2872.5 825.29Z" fill="black"/>
<path d="M3562.33 1281.37V1279.26C3562.33 1118.86 3676.61 986.75 3840.17 986.75C4027.84 986.75 4113.81 1132.47 4113.81 1291.84C4113.81 1304.41 4112.76 1319.1 4111.72 1333.76H3720.65C3736.38 1406.11 3786.7 1443.85 3858 1443.85C3911.47 1443.85 3950.26 1427.08 3994.3 1386.19L4085.51 1466.92C4033.09 1531.93 3957.61 1571.77 3855.9 1571.77C3687.11 1571.77 3562.34 1453.29 3562.34 1281.36L3562.33 1281.37ZM3958.64 1234.17C3949.21 1162.88 3907.27 1114.65 3840.17 1114.65C3773.07 1114.65 3731.13 1161.83 3718.55 1234.17H3958.64Z" fill="black"/>
<path d="M4391.61 1485.8V1559.19H4232.25V793.84H4391.61V1077.96C4430.4 1025.54 4483.87 986.75 4566.7 986.75C4697.75 986.75 4822.52 1089.49 4822.52 1277.16V1279.25C4822.52 1466.92 4699.86 1569.66 4566.7 1569.66C4481.78 1569.66 4429.35 1530.87 4391.61 1485.79V1485.8ZM4663.16 1279.26V1277.17C4663.16 1183.85 4600.25 1122 4525.81 1122C4451.37 1122 4389.52 1183.86 4389.52 1277.17V1279.26C4389.52 1372.58 4451.37 1434.42 4525.81 1434.42C4600.25 1434.42 4663.16 1373.61 4663.16 1279.26Z" fill="black"/>
<path d="M4912.64 1281.37V1279.26C4912.64 1117.81 5042.65 986.75 5217.73 986.75C5392.81 986.75 5520.73 1115.69 5520.73 1277.16V1279.25C5520.73 1440.7 5390.72 1571.77 5215.64 1571.77C5041.6 1571.77 4912.64 1442.81 4912.64 1281.36V1281.37ZM5363.47 1281.37V1279.26C5363.47 1196.44 5303.71 1124.1 5215.64 1124.1C5127.57 1124.1 5069.91 1194.33 5069.91 1277.17V1279.26C5069.91 1362.08 5129.67 1434.42 5217.74 1434.42C5308.95 1434.42 5363.47 1364.19 5363.47 1281.37Z" fill="black"/>
<path d="M5636.02 997.23H5795.38V1110.45C5827.89 1032.87 5880.29 982.55 5974.66 986.75V1153.44H5966.27C5860.38 1153.44 5795.37 1217.39 5795.37 1351.59V1559.18H5636.01V997.22L5636.02 997.23Z" fill="black"/>
<path d="M6091.02 825.29H6265.06L6457.97 1135.64L6650.88 825.29H6824.92V1559.19H6664.51V1080.07L6457.97 1393.54H6453.77L6249.34 1083.21V1559.2H6091.02V825.3V825.29Z" fill="black"/>
<path d="M6956.99 1281.37V1279.26C6956.99 1118.86 7071.28 986.75 7234.83 986.75C7422.5 986.75 7508.47 1132.47 7508.47 1291.84C7508.47 1304.41 7507.42 1319.1 7506.38 1333.76H7115.32C7131.04 1406.11 7181.37 1443.85 7252.65 1443.85C7306.14 1443.85 7344.93 1427.08 7388.96 1386.19L7480.17 1466.92C7427.75 1531.93 7352.27 1571.77 7250.56 1571.77C7081.77 1571.77 6957 1453.29 6957 1281.36L6956.99 1281.37ZM7353.29 1234.17C7343.86 1162.88 7301.93 1114.65 7234.83 1114.65C7167.73 1114.65 7125.79 1161.83 7113.21 1234.17H7353.3H7353.29Z" fill="black"/>
<path d="M7601.75 1279.26V1277.17C7601.75 1089.5 7724.41 986.76 7857.56 986.76C7942.49 986.76 7994.91 1025.55 8032.64 1070.63V793.85H8192V1559.2H8032.64V1478.47C7993.85 1530.89 7940.38 1569.68 7857.56 1569.68C7726.51 1569.68 7601.75 1466.94 7601.75 1279.27V1279.26ZM8034.75 1279.26V1277.17C8034.75 1183.85 7972.89 1122 7898.44 1122C7823.99 1122 7761.09 1182.8 7761.09 1277.17V1279.26C7761.09 1372.58 7824 1434.42 7898.44 1434.42C7972.89 1434.42 8034.75 1372.58 8034.75 1279.26Z" fill="black"/>
<path d="M531.28 1407.8C409.72 1529.36 409.72 1726.32 531.28 1847.88L91.0499 1407.8C-30.3601 1286.24 -30.3601 1089.28 91.0499 967.72L524.83 534.09C405.97 655.8 406.87 850.81 527.53 971.32L747.57 1191.51L531.28 1407.8Z" fill="#FF931E"/>
<path d="M971.36 967.73L966.26 972.83C966.75 972.36 967.2 971.86 967.61 971.33L971.36 967.73Z" fill="#FF931E"/>
<path d="M1847.77 531.25C1726.36 409.84 1529.25 409.84 1407.69 531.25L1191.4 747.69L971.36 527.65C849.8 406.09 652.69 406.09 531.28 527.65L967.61 91.17C1089.17 -30.39 1286.13 -30.39 1407.69 91.17L1847.77 531.25Z" fill="#22B573"/>
<path d="M1191.4 747.69L971.36 967.73L967.61 971.33C967.2 971.86 966.75 972.36 966.26 972.83L964.91 974.33L747.57 1191.52L527.53 971.33C406.87 850.82 405.97 655.81 524.83 534.1C525.73 533.05 526.63 532.15 527.53 531.25L531.28 527.65C652.69 406.09 849.8 406.09 971.36 527.65L1191.4 747.69Z" fill="#22680E"/>
<path d="M967.61 971.32L971.36 967.72L966.26 972.82C966.75 972.35 967.2 971.85 967.61 971.32Z" fill="#22B573"/>
<path d="M2287.85 1411.55L1851.52 1847.88C1973.08 1726.32 1973.08 1529.36 1851.52 1407.8L1631.48 1187.76L1847.77 971.32C1969.33 849.91 1969.33 652.8 1847.77 531.24L2287.85 971.32C2409.41 1092.88 2409.41 1289.99 2287.85 1411.55Z" fill="#58BFCC"/>
<path d="M1847.77 971.32L1631.48 1187.76L1411.44 967.72L1191.4 747.68L1407.69 531.24C1529.25 409.83 1726.36 409.83 1847.77 531.24C1969.33 652.8 1969.33 849.91 1847.77 971.32Z" fill="#0C885C"/>
<path d="M967.61 971.32L971.36 967.72L966.26 972.82C966.75 972.35 967.2 971.85 967.61 971.32Z" fill="#58BFCC"/>
<path d="M1411.44 967.73C1289.88 846.17 1092.77 846.17 971.36 967.73L1191.4 747.69L1411.44 967.73Z" fill="#0C4E0B"/>
<path d="M1847.77 1851.63L1411.44 2287.96C1289.88 2409.52 1092.77 2409.52 971.36 2287.96L531.28 1847.88C652.69 1969.44 849.8 1969.44 971.36 1847.88L1187.65 1631.59L1407.69 1851.63C1529.25 1973.04 1726.36 1973.04 1847.77 1851.63Z" fill="#3FA9F5"/>
<path d="M1851.52 1847.88L1847.77 1851.63C1726.36 1973.04 1529.25 1973.04 1407.69 1851.63L1187.65 1631.59L1407.69 1411.55L1631.48 1187.76L1851.52 1407.8C1973.08 1529.36 1973.08 1726.32 1851.52 1847.88Z" fill="#167FC4"/>
<path d="M1187.65 1631.59L971.36 1847.88C849.8 1969.44 652.69 1969.44 531.28 1847.88C409.72 1726.32 409.72 1529.36 531.28 1407.8L747.57 1191.51L1187.65 1631.59Z" fill="#3F611D"/>
<path d="M1411.44 1407.8L1407.69 1411.55C1286.13 1532.96 1089.17 1532.96 967.61 1411.55C846.95 1290.89 846.05 1096.03 964.91 974.32L966.26 972.82L971.36 967.72C1092.77 846.16 1289.88 846.16 1411.44 967.72C1533 1089.28 1533 1286.24 1411.44 1407.8Z" fill="#03340B"/>
<path d="M967.61 1411.55L747.57 1191.51L964.91 974.32C846.05 1096.03 846.95 1290.89 967.61 1411.55Z" fill="#08450D"/>
<path d="M1407.69 1411.55L1187.65 1631.59L967.61 1411.55C1089.17 1532.96 1286.13 1532.96 1407.69 1411.55Z" fill="#164917"/>
<path d="M1411.44 1407.8C1533 1286.24 1533 1089.28 1411.44 967.72L1631.48 1187.76L1411.44 1407.8Z" fill="#035A58"/>
</g>
<defs>
<clipPath id="clip0_179_63">
<rect width="8192" height="2379.13" fill="white"/>
</clipPath>
</defs>
</svg>
